<svg width="315" height="57" viewBox="0 0 315 57" fill="none" xmlns="http://www.w3.org/2000/svg">
<path d="M71.416 18.84C73.656 18.84 75.656 19.416 77.416 20.568C79.208 21.688 80.616 23.24 81.64 25.224C82.696 27.208 83.224 29.512 83.224 32.136C83.224 34.76 82.696 37.08 81.64 39.096C80.616 41.08 79.224 42.648 77.464 43.8C75.736 44.92 73.784 45.48 71.608 45.48C70.328 45.48 69.128 45.272 68.008 44.856C66.888 44.44 65.896 43.912 65.032 43.272C64.2 42.632 63.544 41.992 63.064 41.352C62.616 40.68 62.392 40.12 62.392 39.672L63.88 39.048V42.552C63.88 43.384 63.608 44.088 63.064 44.664C62.52 45.208 61.832 45.48 61 45.48C60.168 45.48 59.48 45.208 58.936 44.664C58.392 44.12 58.12 43.416 58.12 42.552V12.408C58.12 11.576 58.392 10.888 58.936 10.344C59.48 9.76799 60.168 9.48 61 9.48C61.832 9.48 62.52 9.76799 63.064 10.344C63.608 10.888 63.88 11.576 63.88 12.408V24.6L63.064 24.168C63.064 23.752 63.288 23.256 63.736 22.68C64.184 22.072 64.792 21.48 65.56 20.904C66.328 20.296 67.208 19.8 68.2 19.416C69.224 19.032 70.296 18.84 71.416 18.84ZM70.696 24.12C69.288 24.12 68.056 24.472 67 25.176C65.944 25.88 65.112 26.84 64.504 28.056C63.928 29.24 63.64 30.6 63.64 32.136C63.64 33.64 63.928 35.016 64.504 36.264C65.112 37.48 65.944 38.44 67 39.144C68.056 39.848 69.288 40.2 70.696 40.2C72.104 40.2 73.32 39.848 74.344 39.144C75.4 38.44 76.216 37.48 76.792 36.264C77.4 35.016 77.704 33.64 77.704 32.136C77.704 30.6 77.4 29.24 76.792 28.056C76.216 26.84 75.4 25.88 74.344 25.176C73.32 24.472 72.104 24.12 70.696 24.12Z" fill="#667EEA"/>
<path d="M106.89 18.84C107.722 18.84 108.41 19.112 108.954 19.656C109.498 20.2 109.77 20.904 109.77 21.768V42.072C109.77 42.904 109.498 43.608 108.954 44.184C108.41 44.728 107.722 45 106.89 45C106.058 45 105.37 44.728 104.826 44.184C104.282 43.608 104.01 42.904 104.01 42.072V39.72L105.066 40.152C105.066 40.568 104.842 41.08 104.394 41.688C103.946 42.264 103.338 42.84 102.57 43.416C101.802 43.992 100.89 44.488 99.8342 44.904C98.8102 45.288 97.6902 45.48 96.4742 45.48C94.2662 45.48 92.2662 44.92 90.4742 43.8C88.6822 42.648 87.2582 41.08 86.2022 39.096C85.1782 37.08 84.6662 34.776 84.6662 32.184C84.6662 29.56 85.1782 27.256 86.2022 25.272C87.2582 23.256 88.6662 21.688 90.4262 20.568C92.1862 19.416 94.1382 18.84 96.2822 18.84C97.6582 18.84 98.9222 19.048 100.074 19.464C101.226 19.88 102.218 20.408 103.05 21.048C103.914 21.688 104.57 22.344 105.018 23.016C105.498 23.656 105.738 24.2 105.738 24.648L104.01 25.272V21.768C104.01 20.936 104.282 20.248 104.826 19.704C105.37 19.128 106.058 18.84 106.89 18.84ZM97.1942 40.2C98.6022 40.2 99.8342 39.848 100.89 39.144C101.946 38.44 102.762 37.48 103.338 36.264C103.946 35.048 104.25 33.688 104.25 32.184C104.25 30.648 103.946 29.272 103.338 28.056C102.762 26.84 101.946 25.88 100.89 25.176C99.8342 24.472 98.6022 24.12 97.1942 24.12C95.8182 24.12 94.6022 24.472 93.5462 25.176C92.4902 25.88 91.6582 26.84 91.0502 28.056C90.4742 29.272 90.1862 30.648 90.1862 32.184C90.1862 33.688 90.4742 35.048 91.0502 36.264C91.6582 37.48 92.4902 38.44 93.5462 39.144C94.6022 39.848 95.8182 40.2 97.1942 40.2Z" fill="#667EEA"/>
<path d="M114.682 19.32C115.29 19.32 115.85 19.48 116.362 19.8C116.874 20.088 117.258 20.536 117.514 21.144L124.57 37.272L123.514 37.752L130.714 21.192C131.258 19.912 132.106 19.304 133.258 19.368C134.058 19.368 134.698 19.624 135.178 20.136C135.69 20.616 135.946 21.224 135.946 21.96C135.946 22.184 135.898 22.424 135.802 22.68C135.738 22.936 135.658 23.176 135.562 23.4L126.586 43.176C126.074 44.328 125.258 44.936 124.138 45C123.53 45.096 122.938 44.984 122.362 44.664C121.818 44.344 121.402 43.848 121.114 43.176L112.186 23.4C112.122 23.24 112.042 23.032 111.946 22.776C111.882 22.52 111.85 22.216 111.85 21.864C111.85 21.288 112.106 20.728 112.618 20.184C113.13 19.608 113.818 19.32 114.682 19.32Z" fill="#667EEA"/>
<path d="M159.253 18.84C160.085 18.84 160.773 19.112 161.317 19.656C161.861 20.2 162.133 20.904 162.133 21.768V42.072C162.133 42.904 161.861 43.608 161.317 44.184C160.773 44.728 160.085 45 159.253 45C158.421 45 157.733 44.728 157.189 44.184C156.645 43.608 156.373 42.904 156.373 42.072V39.72L157.429 40.152C157.429 40.568 157.205 41.08 156.757 41.688C156.309 42.264 155.701 42.84 154.933 43.416C154.165 43.992 153.253 44.488 152.197 44.904C151.173 45.288 150.053 45.48 148.837 45.48C146.629 45.48 144.629 44.92 142.837 43.8C141.045 42.648 139.621 41.08 138.565 39.096C137.541 37.08 137.029 34.776 137.029 32.184C137.029 29.56 137.541 27.256 138.565 25.272C139.621 23.256 141.029 21.688 142.789 20.568C144.549 19.416 146.501 18.84 148.645 18.84C150.021 18.84 151.285 19.048 152.437 19.464C153.589 19.88 154.581 20.408 155.413 21.048C156.277 21.688 156.933 22.344 157.381 23.016C157.861 23.656 158.101 24.2 158.101 24.648L156.373 25.272V21.768C156.373 20.936 156.645 20.248 157.189 19.704C157.733 19.128 158.421 18.84 159.253 18.84ZM149.557 40.2C150.965 40.2 152.197 39.848 153.253 39.144C154.309 38.44 155.125 37.48 155.701 36.264C156.309 35.048 156.613 33.688 156.613 32.184C156.613 30.648 156.309 29.272 155.701 28.056C155.125 26.84 154.309 25.88 153.253 25.176C152.197 24.472 150.965 24.12 149.557 24.12C148.181 24.12 146.965 24.472 145.909 25.176C144.853 25.88 144.021 26.84 143.413 28.056C142.837 29.272 142.549 30.648 142.549 32.184C142.549 33.688 142.837 35.048 143.413 36.264C144.021 37.48 144.853 38.44 145.909 39.144C146.965 39.848 148.181 40.2 149.557 40.2Z" fill="#667EEA"/>
<path d="M169.336 45C168.504 45 167.816 44.728 167.272 44.184C166.728 43.608 166.456 42.904 166.456 42.072V22.248C166.456 21.416 166.728 20.728 167.272 20.184C167.816 19.608 168.504 19.32 169.336 19.32C170.168 19.32 170.856 19.608 171.4 20.184C171.944 20.728 172.216 21.416 172.216 22.248V26.76L171.88 23.544C172.232 22.776 172.68 22.104 173.224 21.528C173.8 20.92 174.44 20.424 175.144 20.04C175.848 19.624 176.6 19.32 177.4 19.128C178.2 18.936 179 18.84 179.8 18.84C180.76 18.84 181.56 19.112 182.2 19.656C182.872 20.2 183.208 20.84 183.208 21.576C183.208 22.632 182.936 23.4 182.392 23.88C181.848 24.328 181.256 24.552 180.616 24.552C180.008 24.552 179.448 24.44 178.936 24.216C178.456 23.992 177.896 23.88 177.256 23.88C176.68 23.88 176.088 24.024 175.48 24.312C174.904 24.568 174.36 24.984 173.848 25.56C173.368 26.136 172.968 26.856 172.648 27.72C172.36 28.552 172.216 29.544 172.216 30.696V42.072C172.216 42.904 171.944 43.608 171.4 44.184C170.856 44.728 170.168 45 169.336 45Z" fill="#667EEA"/>
<path d="M190.772 42.072C190.772 42.904 190.5 43.608 189.956 44.184C189.412 44.728 188.724 45 187.892 45C187.06 45 186.372 44.728 185.828 44.184C185.284 43.608 185.012 42.904 185.012 42.072V22.248C185.012 21.416 185.284 20.728 185.828 20.184C186.372 19.608 187.06 19.32 187.892 19.32C188.724 19.32 189.412 19.608 189.956 20.184C190.5 20.728 190.772 21.416 190.772 22.248V42.072ZM187.844 16.2C186.756 16.2 185.988 16.024 185.54 15.672C185.092 15.32 184.868 14.696 184.868 13.8V12.888C184.868 11.96 185.108 11.336 185.588 11.016C186.1 10.664 186.868 10.488 187.892 10.488C189.012 10.488 189.796 10.664 190.244 11.016C190.692 11.368 190.916 11.992 190.916 12.888V13.8C190.916 14.728 190.676 15.368 190.196 15.72C189.716 16.04 188.932 16.2 187.844 16.2Z" fill="#667EEA"/>
<path d="M215.556 18.84C216.388 18.84 217.076 19.112 217.62 19.656C218.164 20.2 218.436 20.904 218.436 21.768V42.072C218.436 42.904 218.164 43.608 217.62 44.184C217.076 44.728 216.388 45 215.556 45C214.724 45 214.036 44.728 213.492 44.184C212.948 43.608 212.676 42.904 212.676 42.072V39.72L213.732 40.152C213.732 40.568 213.508 41.08 213.06 41.688C212.612 42.264 212.004 42.84 211.236 43.416C210.468 43.992 209.556 44.488 208.5 44.904C207.476 45.288 206.356 45.48 205.14 45.48C202.932 45.48 200.932 44.92 199.14 43.8C197.348 42.648 195.924 41.08 194.868 39.096C193.844 37.08 193.332 34.776 193.332 32.184C193.332 29.56 193.844 27.256 194.868 25.272C195.924 23.256 197.332 21.688 199.092 20.568C200.852 19.416 202.804 18.84 204.948 18.84C206.324 18.84 207.588 19.048 208.74 19.464C209.892 19.88 210.884 20.408 211.716 21.048C212.58 21.688 213.236 22.344 213.684 23.016C214.164 23.656 214.404 24.2 214.404 24.648L212.676 25.272V21.768C212.676 20.936 212.948 20.248 213.492 19.704C214.036 19.128 214.724 18.84 215.556 18.84ZM205.86 40.2C207.268 40.2 208.5 39.848 209.556 39.144C210.612 38.44 211.428 37.48 212.004 36.264C212.612 35.048 212.916 33.688 212.916 32.184C212.916 30.648 212.612 29.272 212.004 28.056C211.428 26.84 210.612 25.88 209.556 25.176C208.5 24.472 207.268 24.12 205.86 24.12C204.484 24.12 203.268 24.472 202.212 25.176C201.156 25.88 200.324 26.84 199.716 28.056C199.14 29.272 198.852 30.648 198.852 32.184C198.852 33.688 199.14 35.048 199.716 36.264C200.324 37.48 201.156 38.44 202.212 39.144C203.268 39.848 204.484 40.2 205.86 40.2Z" fill="#667EEA"/>
<path d="M247.587 18.84C249.827 18.84 251.827 19.416 253.587 20.568C255.379 21.688 256.787 23.24 257.811 25.224C258.867 27.208 259.395 29.512 259.395 32.136C259.395 34.76 258.867 37.08 257.811 39.096C256.787 41.08 255.395 42.648 253.635 43.8C251.907 44.92 249.955 45.48 247.779 45.48C246.499 45.48 245.299 45.272 244.179 44.856C243.059 44.44 242.067 43.912 241.203 43.272C240.371 42.632 239.715 41.992 239.235 41.352C238.787 40.68 238.563 40.12 238.563 39.672L240.051 39.048V42.552C240.051 43.384 239.779 44.088 239.235 44.664C238.691 45.208 238.003 45.48 237.171 45.48C236.339 45.48 235.651 45.208 235.107 44.664C234.563 44.12 234.291 43.416 234.291 42.552V12.408C234.291 11.576 234.563 10.888 235.107 10.344C235.651 9.76799 236.339 9.48 237.171 9.48C238.003 9.48 238.691 9.76799 239.235 10.344C239.779 10.888 240.051 11.576 240.051 12.408V24.6L239.235 24.168C239.235 23.752 239.459 23.256 239.907 22.68C240.355 22.072 240.963 21.48 241.731 20.904C242.499 20.296 243.379 19.8 244.371 19.416C245.395 19.032 246.467 18.84 247.587 18.84ZM246.867 24.12C245.459 24.12 244.227 24.472 243.171 25.176C242.115 25.88 241.283 26.84 240.675 28.056C240.099 29.24 239.811 30.6 239.811 32.136C239.811 33.64 240.099 35.016 240.675 36.264C241.283 37.48 242.115 38.44 243.171 39.144C244.227 39.848 245.459 40.2 246.867 40.2C248.275 40.2 249.491 39.848 250.515 39.144C251.571 38.44 252.387 37.48 252.963 36.264C253.571 35.016 253.875 33.64 253.875 32.136C253.875 30.6 253.571 29.24 252.963 28.056C252.387 26.84 251.571 25.88 250.515 25.176C249.491 24.472 248.275 24.12 246.867 24.12Z" fill="#667EEA"/>
<path d="M276.005 18.84C278.373 18.84 280.165 19.336 281.382 20.328C282.63 21.32 283.477 22.648 283.925 24.312C284.405 25.944 284.645 27.768 284.645 29.784V42.072C284.645 42.904 284.373 43.608 283.829 44.184C283.285 44.728 282.598 45 281.766 45C280.934 45 280.245 44.728 279.701 44.184C279.157 43.608 278.885 42.904 278.885 42.072V29.784C278.885 28.728 278.741 27.784 278.453 26.952C278.197 26.088 277.718 25.4 277.014 24.888C276.31 24.376 275.302 24.12 273.99 24.12C272.71 24.12 271.621 24.376 270.725 24.888C269.861 25.4 269.19 26.088 268.71 26.952C268.262 27.784 268.037 28.728 268.037 29.784V42.072C268.037 42.904 267.765 43.608 267.221 44.184C266.677 44.728 265.99 45 265.158 45C264.326 45 263.637 44.728 263.093 44.184C262.549 43.608 262.277 42.904 262.277 42.072V22.248C262.277 21.416 262.549 20.728 263.093 20.184C263.637 19.608 264.326 19.32 265.158 19.32C265.99 19.32 266.677 19.608 267.221 20.184C267.765 20.728 268.037 21.416 268.037 22.248V24.312L267.317 24.168C267.605 23.624 268.021 23.048 268.565 22.44C269.109 21.8 269.75 21.208 270.486 20.664C271.222 20.12 272.053 19.688 272.981 19.368C273.909 19.016 274.917 18.84 276.005 18.84Z" fill="#667EEA"/>
<path d="M302.247 18.84C304.487 18.84 306.487 19.416 308.247 20.568C310.039 21.688 311.447 23.24 312.471 25.224C313.527 27.208 314.055 29.512 314.055 32.136C314.055 34.76 313.527 37.08 312.471 39.096C311.447 41.08 310.055 42.648 308.295 43.8C306.567 44.92 304.615 45.48 302.439 45.48C301.159 45.48 299.959 45.272 298.839 44.856C297.719 44.44 296.727 43.912 295.863 43.272C295.031 42.632 294.375 41.992 293.895 41.352C293.447 40.68 293.223 40.12 293.223 39.672L294.711 39.048V42.552C294.711 43.384 294.439 44.088 293.895 44.664C293.351 45.208 292.663 45.48 291.831 45.48C290.999 45.48 290.311 45.208 289.767 44.664C289.223 44.12 288.951 43.416 288.951 42.552V12.408C288.951 11.576 289.223 10.888 289.767 10.344C290.311 9.76799 290.999 9.48 291.831 9.48C292.663 9.48 293.351 9.76799 293.895 10.344C294.439 10.888 294.711 11.576 294.711 12.408V24.6L293.895 24.168C293.895 23.752 294.119 23.256 294.567 22.68C295.015 22.072 295.623 21.48 296.391 20.904C297.159 20.296 298.039 19.8 299.031 19.416C300.055 19.032 301.127 18.84 302.247 18.84ZM301.527 24.12C300.119 24.12 298.887 24.472 297.831 25.176C296.775 25.88 295.943 26.84 295.335 28.056C294.759 29.24 294.471 30.6 294.471 32.136C294.471 33.64 294.759 35.016 295.335 36.264C295.943 37.48 296.775 38.44 297.831 39.144C298.887 39.848 300.119 40.2 301.527 40.2C302.935 40.2 304.151 39.848 305.175 39.144C306.231 38.44 307.047 37.48 307.623 36.264C308.231 35.016 308.535 33.64 308.535 32.136C308.535 30.6 308.231 29.24 307.623 28.056C307.047 26.84 306.231 25.88 305.175 25.176C304.151 24.472 302.935 24.12 301.527 24.12Z" fill="#667EEA"/>
<path d="M15.4176 4.0708C-2.09331 11.2149 -2.84778 49.1749 15.4176 54.0424C29.3325 57.7505 44 50.0895 44 41.3672C44 30.8654 30.2213 18.4263 24.4443 21.152C19.2518 23.6019 18.6487 32.7042 24.4443 34.9623C30.0408 37.1429 44 26.6313 44 15.382C44 2.66193 27.1212 -0.704033 15.4176 4.0708Z" stroke="#667EEA" stroke-width="3"/>
</svg>
